<?xml version="1.0" standalone="no"?>
<!DOCTYPE svg PUBLIC "-//W3C//DTD SVG 20010904//EN"
 "http://www.w3.org/TR/2001/REC-SVG-20010904/DTD/svg10.dtd">
<svg version="1.0" xmlns="http://www.w3.org/2000/svg"
 width="281.000000pt" height="281.000000pt" viewBox="0 0 281.000000 281.000000"
 preserveAspectRatio="xMidYMid meet">
<metadata>
Created by potrace 1.14, written by Peter Selinger 2001-2017
</metadata>
<g transform="translate(0.000000,281.000000) scale(0.100000,-0.100000)"
fill="#000000" stroke="none">
<path d="M0 1405 l0 -1405 1405 0 1405 0 0 1405 0 1405 -1405 0 -1405 0 0
-1405z m1368 743 c9 -9 12 -78 12 -249 l0 -236 -30 -31 c-63 -66 -27 -162 60
-162 57 0 90 34 90 91 0 33 -6 47 -30 69 l-30 28 0 245 c0 153 4 248 10 252
16 10 128 -22 182 -52 182 -99 284 -311 248 -513 -18 -101 -63 -185 -141 -263
-103 -103 -103 -103 -107 134 l-2 196 30 31 c63 66 27 162 -60 162 -87 0 -123
-96 -60 -162 l30 -31 0 -204 c0 -114 -4 -212 -10 -223 -14 -27 -64 -40 -149
-40 -100 0 -149 14 -161 46 -6 14 -10 114 -10 222 l0 196 32 33 c66 68 30 163
-61 163 -85 0 -122 -97 -61 -157 l30 -30 -2 -199 c-4 -238 -4 -238 -102 -141
-179 176 -201 443 -52 645 65 88 169 156 276 182 50 12 55 11 68 -2z m-678
-1209 l24 -51 25 51 c16 33 31 51 43 51 16 0 18 -11 18 -100 0 -82 -3 -100
-15 -100 -12 0 -15 15 -15 78 l-1 77 -20 -37 c-11 -21 -26 -38 -34 -38 -8 0
-23 17 -34 38 l-20 37 -1 -77 c0 -63 -3 -78 -15 -78 -12 0 -15 17 -15 93 0 52
3 97 7 100 16 16 31 4 53 -44z m1120 31 c23 -23 24 -33 9 -62 -8 -14 -8 -23 0
-31 35 -35 -9 -87 -74 -87 l-45 0 0 100 0 100 45 0 c32 0 51 -6 65 -20z m390
10 c0 -5 -4 -10 -10 -10 -5 0 -10 5 -10 10 0 6 5 10 10 10 6 0 10 -4 10 -10z
m-1276 -56 c11 -10 16 -34 16 -73 l0 -58 -42 0 c-50 -1 -68 11 -68 41 0 30 18
46 53 46 42 0 33 34 -11 38 -17 2 -32 7 -32 13 0 15 67 10 84 -7z m151 0 c21
-22 21 -134 0 -134 -12 0 -15 13 -15 59 0 63 -8 76 -40 66 -17 -5 -20 -15 -20
-67 0 -43 -3 -59 -12 -56 -9 3 -14 30 -16 75 l-3 70 45 1 c28 1 51 -4 61 -14z
m135 7 c0 -6 -14 -11 -32 -13 -42 -4 -44 -19 -5 -43 34 -22 48 -62 25 -76 -18
-12 -78 -11 -78 0 0 6 14 11 32 13 44 4 45 22 3 48 -33 20 -47 55 -28 73 10
11 83 8 83 -2z m134 -13 c35 -49 9 -128 -41 -128 -15 0 -35 7 -45 17 -23 21
-24 89 -1 115 23 25 68 23 87 -4z m142 8 c14 -11 19 -26 19 -61 0 -51 -20 -75
-61 -75 -35 0 -54 26 -54 75 0 67 47 97 96 61z m114 4 c0 -5 -9 -12 -20 -15
-17 -5 -20 -15 -20 -66 0 -33 -4 -59 -10 -59 -6 0 -10 31 -10 73 l0 74 30 1
c17 0 30 -3 30 -8z m348 -2 c7 -7 12 -39 12 -73 l0 -61 -45 -2 c-39 -1 -47 2
-56 22 -17 37 3 66 46 66 38 0 38 0 29 24 -4 10 -18 16 -40 16 -19 0 -34 5
-34 10 0 14 74 12 88 -2z m112 2 c0 -5 -9 -12 -20 -15 -17 -5 -20 -15 -20 -66
0 -33 -4 -59 -10 -59 -6 0 -10 31 -10 73 l0 74 30 1 c17 0 30 -3 30 -8z m90 0
c0 -5 -9 -12 -20 -15 -17 -5 -20 -15 -20 -66 0 -33 -4 -59 -10 -59 -6 0 -10
31 -10 73 l0 74 30 1 c17 0 30 -3 30 -8z m50 -65 c0 -43 -4 -75 -10 -75 -6 0
-10 32 -10 75 0 43 4 75 10 75 6 0 10 -32 10 -75z m-1543 -217 c-2 -13 -4 -3
-4 22 0 25 2 35 4 23 2 -13 2 -33 0 -45z m55 22 c-2 -22 -5 -40 -7 -40 -2 0
-5 18 -7 40 -2 24 1 40 7 40 6 0 9 -16 7 -40z m106 33 c-26 -7 -24 -60 2 -66
17 -4 16 -4 -2 -3 -19 1 -24 8 -26 39 -3 33 -1 37 20 36 17 -1 18 -3 6 -6z
m117 -13 c16 0 26 -25 19 -45 -4 -8 -15 -15 -25 -15 -16 0 -19 7 -18 43 0 23
3 36 6 30 2 -7 11 -13 18 -13z m173 11 c-2 -5 6 -16 16 -24 23 -17 15 -48 -11
-46 -17 1 -17 2 0 6 23 6 22 18 -5 35 -12 8 -18 19 -14 26 9 14 17 16 14 3z
m471 -8 c0 -11 -3 -13 -6 -5 -2 6 -12 12 -20 12 -14 0 -14 -3 2 -20 10 -11 22
-17 26 -14 5 3 9 -4 9 -16 0 -17 -5 -21 -27 -18 -24 2 -28 8 -28 33 -1 40 3
45 26 45 12 0 19 -7 18 -17z m91 -23 c0 -22 -4 -40 -10 -40 -5 0 -10 18 -10
40 0 22 5 40 10 40 6 0 10 -18 10 -40z m163 17 c11 -4 16 -16 16 -34 l-2 -28
-4 28 c-2 15 -10 27 -18 27 -8 0 -16 -12 -18 -27 -3 -18 -4 -12 -5 17 -1 25 2
40 6 34 4 -6 15 -13 25 -17z m164 -39 c-2 -13 -4 -3 -4 22 0 25 2 35 4 23 2
-13 2 -33 0 -45z m-573 14 c1 -18 -2 -32 -6 -32 -5 0 -8 9 -8 19 0 11 -3 27
-7 37 -4 11 -2 15 7 12 7 -2 14 -18 14 -36z m-553 -12 c5 0 10 10 10 23 1 14
3 16 6 6 6 -22 -14 -69 -29 -69 -10 0 -10 2 -1 8 8 5 9 13 3 22 -6 8 -9 24 -8
35 1 17 1 17 5 -2 2 -13 9 -23 14 -23z m143 25 c4 -10 -1 -15 -14 -15 -25 0
-26 -17 -2 -23 13 -4 11 -5 -5 -6 -19 -1 -23 4 -23 29 0 23 5 30 19 30 10 0
21 -7 25 -15z m40 7 c-7 -4 -14 -18 -17 -32 -4 -21 -4 -20 -6 8 -1 24 3 32 17
32 11 0 13 -3 6 -8z m150 -7 c4 -10 -1 -15 -14 -15 -25 0 -26 -17 -2 -23 13
-4 11 -5 -5 -6 -19 -1 -23 4 -23 29 0 23 5 30 19 30 10 0 21 -7 25 -15z m39 8
c-7 -2 -13 -13 -13 -23 0 -10 6 -21 13 -23 7 -3 5 -6 -5 -6 -13 -1 -18 7 -18
29 0 22 5 30 18 29 10 0 12 -3 5 -6z m52 -43 c8 0 16 12 18 28 4 25 4 24 6 -6
1 -29 -2 -33 -21 -30 -17 2 -23 10 -24 28 -1 22 0 22 3 3 2 -13 10 -23 18 -23z
m59 42 c-7 -4 -14 -18 -17 -32 -4 -21 -4 -20 -6 8 -1 24 3 32 17 32 11 0 13
-3 6 -8z m23 -39 c-3 -10 -5 -2 -5 17 0 19 2 27 5 18 2 -10 2 -26 0 -35z m94
26 c14 37 20 20 7 -22 -7 -23 -17 -37 -27 -36 -10 0 -11 3 -4 5 9 4 9 13 2 30
-12 34 -10 56 3 24 l10 -25 9 24z m267 4 c2 -8 -5 -13 -17 -13 -28 0 -27 -17
2 -23 19 -5 19 -5 -3 -4 -20 2 -26 8 -28 30 -3 25 0 28 19 25 12 -2 24 -9 27
-15z m35 10 c-18 -7 -16 -41 2 -46 11 -4 10 -4 -2 -3 -26 2 -31 56 -6 55 10 0
13 -3 6 -6z m136 -25 c-2 -31 -2 -31 -6 -5 -2 15 -10 27 -18 27 -8 0 -16 -12
-18 -27 -4 -26 -4 -26 -6 5 -1 28 2 32 24 32 22 0 25 -4 24 -32z m65 17 c8
-23 -4 -45 -25 -45 -14 0 -19 7 -19 30 0 23 5 30 19 30 10 0 21 -7 25 -15z
m90 0 c8 -23 -4 -45 -25 -45 -14 0 -19 7 -19 30 0 23 5 30 19 30 10 0 21 -7
25 -15z m66 -1 c0 -9 -9 -18 -20 -21 -25 -7 -27 -33 -2 -33 15 0 15 2 2 11
-10 7 -11 9 -2 7 22 -6 19 -23 -5 -26 -21 -3 -23 1 -23 37 0 37 2 41 25 41 16
0 25 -6 25 -16z m41 -5 c14 37 20 20 7 -22 -7 -23 -17 -37 -27 -36 -10 0 -11
3 -4 5 9 4 9 13 2 30 -12 34 -10 56 3 24 l10 -25 9 24z"/>
<path d="M1720 935 c0 -30 3 -35 24 -35 39 0 56 11 56 35 0 24 -17 35 -56 35
-21 0 -24 -5 -24 -35z"/>
<path d="M1720 846 c0 -33 3 -36 28 -36 38 0 54 13 50 41 -2 20 -10 25 -40 27
-37 3 -38 3 -38 -32z"/>
<path d="M853 844 c-3 -8 -1 -20 5 -26 16 -16 47 -5 50 20 3 18 -1 22 -23 22
-14 0 -28 -7 -32 -16z"/>
<path d="M1268 895 c-17 -37 0 -80 32 -80 27 0 41 33 30 75 -9 36 -46 39 -62
5z"/>
<path d="M1422 908 c-17 -17 -15 -73 4 -89 23 -19 48 1 52 40 5 50 -27 78 -56
49z"/>
<path d="M1880 841 c0 -11 5 -23 10 -26 18 -11 50 6 50 26 0 14 -7 19 -30 19
-23 0 -30 -5 -30 -19z"/>
<path d="M920 660 c0 -11 5 -20 10 -20 6 0 10 9 10 20 0 11 -4 20 -10 20 -5 0
-10 -9 -10 -20z"/>
<path d="M1540 650 c0 -5 7 -10 16 -10 8 0 12 5 9 10 -3 6 -10 10 -16 10 -5 0
-9 -4 -9 -10z"/>
<path d="M1708 673 c7 -3 16 -2 19 1 4 3 -2 6 -13 5 -11 0 -14 -3 -6 -6z"/>
<path d="M1940 660 c0 -13 5 -20 13 -17 6 2 12 10 12 17 0 7 -6 15 -12 18 -8
2 -13 -5 -13 -18z"/>
<path d="M2030 660 c0 -13 5 -20 13 -17 6 2 12 10 12 17 0 7 -6 15 -12 18 -8
2 -13 -5 -13 -18z"/>
<path d="M2090 670 c0 -5 4 -10 9 -10 6 0 13 5 16 10 3 6 -1 10 -9 10 -9 0
-16 -4 -16 -10z"/>
</g>
</svg>
