<svg version="1.2" xmlns="http://www.w3.org/2000/svg" viewBox="0 0 500 500" width="500" height="500">
	<title>New Project</title>
	<style>
		.s0 { fill: #ffffff } 
	</style>
	<path id="M" class="s0" aria-label="M"  d="m24.8 119.9v260.1h61.3v-160.7h2.1l62.5 159h39.1l62.5-158.1h2.2v159.8h61.2v-260.1h-77.9l-66 161h-3.1l-66-161z"/>
	<path id="B" class="s0" aria-label="B"  d="m268.8 380h116.7c57.5 0 90.5-30.7 90.5-72.8 0-37.6-27.3-61.2-58.8-62.6v-2.5c28.6-6 48.7-26.7 48.7-56.4 0-39.3-30.3-65.8-88.7-65.8h-108.4zm62.8-50.7v-62h40c24 0 38.8 12.7 38.8 32.7 0 18.4-12.7 29.3-39.9 29.3zm0-102.5v-57h35.8c21 0 34.3 10.8 34.3 28.1 0 18.3-14.7 28.9-35.3 28.9z"/>
</svg>